<svg version="1.0" xmlns="http://www.w3.org/2000/svg"
height="2em"
viewBox="0 0 620.000000 600.000000"
>

<g transform="translate(0.000000,600.000000) scale(0.100000,-0.100000)"
fill="#000000" stroke="none">
<path d="M2200 5700 l0 -100 -200 0 -200 0 0 -100 0 -100 -100 0 -100 0 0
-100 0 -100 -100 0 -100 0 0 -100 0 -100 -100 0 -100 0 0 -100 0 -100 -100 0
-100 0 0 -100 0 -100 -100 0 -100 0 0 -200 0 -200 -100 0 -100 0 0 -200 0
-200 -100 0 -100 0 0 -900 0 -900 100 0 100 0 0 -200 0 -200 100 0 100 0 0
-100 0 -100 100 0 100 0 0 -100 0 -100 100 0 100 0 0 -100 0 -100 100 0 100 0
0 -100 0 -100 100 0 100 0 0 -100 0 -100 100 0 100 0 0 -100 0 -100 200 0 200
0 0 -100 0 -100 200 0 200 0 0 400 0 400 -400 0 -400 0 0 100 0 100 -100 0
-100 0 0 100 0 100 -100 0 -100 0 0 100 0 100 -100 0 -100 0 0 100 0 100 200
0 200 0 0 -100 0 -100 100 0 100 0 0 -100 0 -100 100 0 100 0 0 -100 0 -100
200 0 200 0 0 100 0 100 100 0 100 0 0 100 0 100 100 0 100 0 0 100 0 100
-400 0 -400 0 0 100 0 100 -100 0 -100 0 0 100 0 100 -100 0 -100 0 0 100 0
100 -100 0 -100 0 0 600 0 600 100 0 100 0 0 100 0 100 100 0 100 0 0 100 0
100 -100 0 -100 0 0 300 0 300 300 0 300 0 0 -100 0 -100 100 0 100 0 0 -100
0 -100 100 0 100 0 0 100 0 100 500 0 500 0 0 -100 0 -100 100 0 100 0 0 100
0 100 100 0 100 0 0 100 0 100 300 0 300 0 0 -300 0 -300 -100 0 -100 0 0
-100 0 -100 100 0 100 0 0 -100 0 -100 100 0 100 0 0 -600 0 -600 -100 0 -100
0 0 -100 0 -100 -100 0 -100 0 0 -100 0 -100 -100 0 -100 0 0 -100 0 -100
-400 0 -400 0 0 -100 0 -100 100 0 100 0 0 -100 0 -100 100 0 100 0 0 -600 0
-600 200 0 200 0 0 100 0 100 100 0 100 0 0 100 0 100 100 0 100 0 0 100 0
100 100 0 100 0 0 100 0 100 100 0 100 0 0 100 0 100 100 0 100 0 0 100 0 100
100 0 100 0 0 100 0 100 100 0 100 0 0 200 0 200 100 0 100 0 0 900 0 900
-100 0 -100 0 0 200 0 200 -100 0 -100 0 0 200 0 200 -100 0 -100 0 0 100 0
100 -100 0 -100 0 0 100 0 100 -100 0 -100 0 0 100 0 100 -100 0 -100 0 0 100
0 100 -100 0 -100 0 0 100 0 100 -200 0 -200 0 0 100 0 100 -900 0 -900 0 0
-100z"/>
</g>
</svg>
