
<svg version="1.0" xmlns="http://www.w3.org/2000/svg"
 viewBox="0 0 512.000000 512.000000"
>

<g transform="translate(0.000000,512.000000) scale(0.100000,-0.100000)"
fill="#FFFFFF" stroke="none">
<path d="M330 4955 l0 -165 -165 0 -165 0 0 -335 0 -335 165 0 165 0 2 -167 3
-168 333 -3 332 -2 0 170 0 170 170 0 170 0 -2 333 -3 332 -167 3 -168 2 0
165 0 165 -335 0 -335 0 0 -165z"/>
<path d="M110 1725 l0 -1725 555 0 555 0 0 1725 0 1725 -555 0 -555 0 0 -1725z"/>
<path d="M1560 1725 l0 -1725 555 0 555 0 0 1055 0 1055 168 2 167 3 3 168 2
167 330 0 330 0 2 -167 3 -168 168 -3 167 -2 0 -1055 0 -1055 555 0 555 0 0
1390 0 1390 -165 0 -165 0 -2 168 -3 167 -167 3 -168 2 0 165 0 165 -780 0
-780 0 0 -165 0 -165 -165 0 -165 0 0 165 0 165 -500 0 -500 0 0 -1725z"/>
</g>
</svg>
