<svg version="1.0" xmlns="http://www.w3.org/2000/svg"
 viewBox="0 0 512.000000 512.000000">
<g transform="translate(0.000000,512.000000) scale(0.100000,-0.100000)"
fill="#FFFFFF" stroke="none">
<path d="M1780 4565 l0 -555 -335 0 -335 0 0 165 0 165 -165 0 -165 0 0 165 0
165 -165 0 -165 0 0 -165 0 -165 165 0 165 0 0 -165 0 -165 165 0 165 0 0
-335 0 -335 -555 0 -555 0 0 -165 0 -165 387 -2 388 -3 0 -445 0 -445 -387 -3
-388 -2 0 -165 0 -165 555 0 555 0 0 -335 0 -335 -165 0 -165 0 0 -165 0 -165
-165 0 -165 0 0 -165 0 -165 165 0 165 0 0 165 0 165 165 0 165 0 0 165 0 165
335 0 335 0 0 -555 0 -555 165 0 165 0 2 387 3 388 445 0 445 0 3 -388 2 -387
165 0 165 0 0 555 0 555 335 0 335 0 0 -165 0 -165 165 0 165 0 0 -165 0 -165
165 0 165 0 0 165 0 165 -165 0 -165 0 0 165 0 165 -165 0 -165 0 0 335 0 335
555 0 555 0 0 165 0 165 -387 2 -388 3 0 445 0 445 388 3 387 2 0 165 0 165
-555 0 -555 0 0 335 0 335 165 0 165 0 0 165 0 165 165 0 165 0 0 165 0 165
-165 0 -165 0 0 -165 0 -165 -165 0 -165 0 0 -165 0 -165 -335 0 -335 0 0 555
0 555 -165 0 -165 0 -2 -387 -3 -388 -445 0 -445 0 -3 388 -2 387 -165 0 -165
0 0 -555z"/>
</g>
</svg>
